<svg width="531" height="241" viewBox="0 0 531 241" fill="none" xmlns="http://www.w3.org/2000/svg">
<path d="M190.593 128.622C190.876 126.848 191.053 125.175 190.986 123.35C190.886 120.655 190.753 122.457 190.838 120.799C190.931 118.974 190.329 117.912 190.838 117.212C190.764 116.02 190.673 114.798 190.454 113.631L190.112 111.044C190.04 110.5 190.139 109.705 190.025 109.202C189.932 108.789 189.881 108.424 189.835 107.829C189.805 107.512 189.67 106.985 189.571 106.679C188.862 104.487 189.78 106.62 188.8 104.309L187.916 102.227L187.297 100.737L186.423 98.1674C185.978 96.8571 185.418 95.7051 185.015 94.3758C184.795 93.65 184.441 93.0571 183.805 92.787C183.727 92.1519 183.512 91.6076 183.307 91.0294C182.919 89.9302 182.469 88.9216 181.637 88.1008L181.107 86.9509C180.995 86.7104 180.717 86.4129 180.546 86.2019C180.598 85.6027 180.347 84.9465 179.995 84.4548L180.482 83.7438L179.26 82.8217C179.032 82.0558 178.641 81.292 178.886 80.3679L177.993 80.1104C177.854 79.3614 177.387 78.6546 177.123 77.952C176.676 76.7577 176.099 75.6373 175.46 74.4241C174.127 71.8985 174.767 74.0443 173.863 71.7993C172.837 71.0461 171.765 70.2169 171.224 69.0986C170.661 67.9318 169.652 66.9971 168.507 66.3789C169.282 66.6025 165.199 62.7645 165.497 63.0177L164.477 62.1484C163.787 61.5598 162.893 61.085 161.996 60.5554L159.995 59.3781L157.645 57.9433L155.215 56.2532C155.107 56.1773 154.858 56.0865 154.742 56.0211C153.984 55.5907 152.458 54.81 151.594 54.5378L150.969 54.158C149.736 53.409 149.432 53.6263 149.033 52.8562C148.708 52.2253 147.063 52.1346 146.362 52.2401L145.364 51.9848C145.364 51.9848 145.351 51.9806 145.343 51.9785C145.108 51.4657 145.168 51.3138 145.011 51.2885L144.188 51.1492C144.144 51.1429 144.068 51.1556 144.004 51.164L142.446 50.3496L140.603 49.7799C139.754 49.5183 139.003 48.7756 138.11 48.6236C137.113 48.2291 136.049 47.9548 134.985 47.7227C134.447 47.0686 131.447 45.9524 130.296 45.6001L126.572 44.4628L124.207 43.8488C121.72 43.2032 119.375 42.5681 116.818 42.2453L112.743 41.7304C111.403 41.5616 110.005 41.779 108.763 41.473C108.394 41.3823 108.143 41.4414 107.617 41.3802L104.524 41.0194C103.99 40.9561 103.365 41.0637 102.854 41.1164L98.6337 41.5511C97.1263 41.7051 95.602 42.0258 94.1642 42.2516C93.5836 42.1798 92.68 42.0554 92.0657 42.2685L89.4878 43.1568C89.0149 43.3192 88.3056 43.6167 87.8706 43.8129C88.3457 43.5977 83.5046 44.3573 83.815 44.6485C83.2238 44.6295 82.4743 44.7793 81.9592 45.0388C81.0366 45.5051 80.5784 45.5684 79.0203 46.2795C78.7628 46.3976 78.2413 46.539 77.895 46.6572L75.7965 47.364C75.4397 47.4843 75.0322 47.5834 74.6627 47.7607C74.0969 48.035 73.5058 48.3493 72.8808 48.4591L72.1081 48.592C71.9287 48.6236 71.8252 49.0498 71.8062 49.225L68.3607 50.8222C66.2917 51.7801 65.4641 51.9299 63.9989 52.7001C63.1058 53.1706 62.2571 53.6601 61.4232 54.2066C60.585 54.7552 59.5822 55.1371 58.706 55.6118C58.4611 55.7447 55.7566 57.5255 55.7988 57.8462C54.5701 58.3336 53.4532 59.1164 52.3575 60.0089L47.1174 64.271C46.598 64.693 46.1357 65.1024 45.7008 65.5982L43.9379 67.6153C43.5515 68.0584 43.2306 68.6323 42.8823 69.1134C42.6986 69.3687 42.5318 69.6219 42.4473 69.9616C42.0145 70.3329 41.5923 70.7444 41.1405 71.1896C39.4663 72.8438 40.9674 71.7213 39.7154 72.9661C39.7006 73.4535 37.8723 75.2808 37.5429 75.7682C36.7787 76.8991 36.1263 77.8549 35.3261 78.8318C35.2459 78.9289 33.7005 81.8195 33.5801 82.1381L32.5245 84.9317C33.2951 82.8935 30.029 90.0926 30.4745 89.1242C30.4027 89.2803 30.3183 89.5968 30.2592 89.7719L29.402 92.2701C29.2605 92.6794 29.0473 93.1162 28.9861 93.5635L28.5512 94.034C27.9769 94.6565 27.6412 95.492 27.2211 96.3655C26.9509 96.9289 26.7608 97.2707 26.8073 98.0176C26.6342 98.3531 26.1275 98.9502 25.9987 99.292L25.1795 101.476C24.4237 103.489 25.1246 103.33 24.1345 105.694C23.1147 108.128 23.8368 107.384 23.4251 110.789L23.1253 113.27C22.9775 114.496 23.1 115.87 23.2309 117.014C23.1548 117.562 23.0556 118.128 23.0007 118.788L22.7748 121.506C22.7664 121.615 22.4222 121.805 22.3505 121.74L22 121.432L22.2871 126.517C22.3209 127.131 22.2871 128.238 22.2048 128.823C21.9916 130.332 22.2048 131.69 22.5447 133.29C22.7115 134.075 22.7664 134.876 23.0155 135.558C23.2224 136.125 23.1907 136.862 23.2435 137.476C23.3237 138.44 23.4525 139.484 23.6573 140.436C23.7903 141.061 24.0057 141.759 24.1999 142.451L24.6285 143.981C24.7383 144.371 24.9515 144.789 25.1605 145.08L25.511 146.521C25.7559 147.523 26.024 148.426 26.4779 149.3C26.8453 151.933 28.6652 154.343 29.611 156.033L30.426 157.489L30.8482 158.136C31.205 158.932 31.6315 159.715 32.1234 160.426C32.1741 160.595 32.2796 160.905 32.3366 161.061C33.2445 163.559 33.749 163.458 34.887 164.631C35.6175 165.384 36.3248 166.258 36.9898 167.152C37.4205 167.733 37.7773 168.33 38.3917 168.511C38.5331 169.039 39.0335 169.496 39.3333 169.954C39.8949 170.815 40.5578 171.663 41.5585 172.02C41.8076 172.689 42.2806 173.261 42.8041 173.822L43.7479 174.833C44.0561 175.516 44.2757 176.413 44.6599 177.073L46.2159 179.749C46.2159 179.749 46.4946 179.468 46.6128 179.529L47.2694 179.871C48.2744 180.394 48.8866 180.985 49.2075 182.004L50.715 183.469C51.1224 183.865 51.5869 184.391 52.0746 184.806C52.2836 184.983 52.8663 185.125 53.0458 185.311C54.1689 186.488 55.8854 187.077 56.7256 188.136C57.2978 188.857 57.8678 189.013 58.5223 189.351C59.0375 189.617 59.7447 190.598 60.414 190.611L61.2711 191.028C61.894 191.552 62.5991 192.048 63.3803 192.113C63.6315 192.379 64.077 192.615 64.4296 192.723C65.2171 193.527 66.3445 193.771 67.4064 194.248C68.576 194.774 69.5873 195.554 70.7337 195.896L72.8851 196.538C73.5353 197.325 74.6416 197.584 75.6318 197.842C76.7507 198.791 75.8176 197.774 78.5179 199.304C79.2125 199.696 80.3567 199.629 81.1083 200C85.9853 196.548 95.4204 190.661 103.291 190.467C114.451 190.191 105.632 177.248 123.13 174.908C123.13 174.908 120.652 189.229 144.072 191.018C146.255 191.185 148.212 191.429 149.964 191.735C150.091 191.617 150.207 191.461 150.323 191.239L151.318 190.885C151.579 190.788 151.892 190.282 152.031 190.024L152.253 189.608C152.861 190.016 153.123 189.273 153.558 188.965C154.997 187.942 156.657 187.14 157.719 185.804C158.496 185.749 159.592 185.034 160.024 184.511C160.185 184.317 160.582 183.941 160.78 183.783C161.506 183.355 162.083 182.996 162.418 182.38L163.297 181.791C163.791 181.46 164.675 181.112 164.728 180.485C165.649 180.097 167.129 178.554 168.281 178.012L168.746 177.318C169.673 176.605 170.54 175.683 171.412 174.748L172.939 173.109C173.376 172.64 173.745 172.14 173.977 171.615C174.503 171.41 175.261 170.965 175.472 170.37L176.488 170.123L176.783 168.283C177.089 168.049 177.472 167.541 177.645 167.186L178.453 165.542L178.983 164.935C179.471 163.757 180.752 162.658 181.181 161.13L181.576 160.466L183.563 156.579C184.027 155.672 184.173 154.626 184.578 153.708L185.898 150.724C186.031 150.349 185.376 149.477 185.83 149.142L186.649 147.796C187.245 147.133 187.211 146.285 187.492 145.443C187.709 144.789 188.127 144.044 188.296 143.32L188.731 141.451L189.324 138.105C189.544 136.87 189.991 133.876 189.829 132.796L190.456 131.96L190.441 131.528C190.867 130.678 190.46 129.553 190.61 128.612L190.593 128.622ZM68.614 94.1986L65.3437 99.1823L62.0713 94.1986C60.5829 91.9304 58.6785 90.0272 56.409 88.5397L51.4222 85.2693L56.409 82.001C58.6785 80.5134 60.5829 78.6082 62.0713 76.3421L65.3437 71.3584L68.614 76.3421C70.1025 78.6103 72.0089 80.5134 74.2764 82.001L79.2631 85.2693L74.2764 88.5397C72.0068 90.0272 70.1025 91.9304 68.614 94.1986ZM98.4226 138.892L97.196 142.109C96.8075 143.13 95.8131 143.793 94.7195 143.759L77.9394 143.242C76.8816 143.211 75.9506 142.531 75.598 141.533L73.3707 135.224C72.864 133.792 73.7106 132.235 75.1884 131.878L80.6966 130.549C81.2245 130.422 81.6974 130.131 82.05 129.718L85.9684 125.111C86.511 124.472 87.3323 124.141 88.1662 124.219L99.9913 125.344L113.579 126.23C114.115 126.266 114.626 126.466 115.04 126.808L121.811 132.366C122.632 133.041 122.953 134.151 122.617 135.159L121.251 139.257C120.903 140.299 119.93 141.004 118.832 141.01L113.461 141.04C112.834 141.044 112.228 140.818 111.757 140.404L108.865 137.877C108.396 137.467 107.797 137.242 107.176 137.242H100.823C99.759 137.242 98.8047 137.898 98.4247 138.894L98.4226 138.892ZM152.046 168.718C142.676 177.529 141.034 187.203 143.918 189.233C143.918 189.233 117.88 186.823 126.145 170.714C133.473 156.432 148.189 162.797 141.714 152.195C141.714 152.195 161.416 159.905 152.046 168.718ZM154.571 158.666C154.571 158.666 148.049 146.962 123.802 150.129C112.904 151.553 106.737 147.496 103.251 142.603C103.753 142.447 104.245 142.324 104.723 142.324C105.2 142.324 105.58 142.441 105.943 142.677C106.551 143.071 107.326 143.289 108.12 143.289C108.506 143.289 108.886 143.24 109.243 143.141C111.139 143.863 113.358 144.217 115.946 144.002C123.741 143.36 129.996 142.668 135.536 142.816C142.279 142.991 146.645 135.788 143.445 129.855C141.904 127.002 139.877 124.179 137.206 121.805C138.504 122.174 139.843 122.529 141.232 122.596C145.854 125.559 151.598 131.287 154.569 142.145C154.569 142.145 157.51 151.921 154.569 158.668L154.571 158.666ZM165.837 115.412L163.546 121.328C163.191 122.242 162.321 122.854 161.342 122.877L151.29 123.122C150.549 123.141 149.84 122.818 149.367 122.25L144.549 116.473C144.106 115.942 143.455 115.625 142.763 115.602L135.796 115.378C134.797 115.347 133.881 115.929 133.486 116.847L131.886 120.579C131.537 121.394 130.771 121.953 129.891 122.037L118.845 123.113C118.6 123.137 118.353 123.124 118.11 123.073L99.132 119.096C99.0771 119.085 99.0222 119.075 98.9652 119.066L74.7408 115.726C73.2186 115.518 72.2728 113.965 72.7837 112.515L75.104 105.947C75.3827 105.156 76.0519 104.565 76.8732 104.385L87.4357 102.069C88.0543 101.934 88.5948 101.562 88.941 101.035L96.8286 89.0735C97.2424 88.4469 97.9201 88.0481 98.6696 87.989L117.736 86.5226C117.81 86.5163 117.884 86.5141 117.956 86.5163L139.533 86.8201C139.898 86.8243 140.257 86.9129 140.584 87.0754L154.031 93.7935C155.04 94.2978 155.567 95.4287 155.306 96.5259L153.114 105.727C152.831 106.915 153.475 108.126 154.617 108.559L164.428 112.262C165.689 112.739 166.32 114.15 165.834 115.408L165.837 115.412Z" fill="#00CA76"/>
<path d="M263.861 123.12V134.531C263.861 140.195 261.045 145.43 256.518 148.172C254.385 149.375 251.908 150.061 249.256 150.061H248.83C245.926 149.974 243.023 149.116 240.032 147.485C238.752 146.798 236.445 145.683 234.995 146.54C234.055 147.139 233.541 148.512 233.541 149.287H225C225 146.798 225.94 143.793 227.991 141.393V91.4552H236.532V109.562C239.436 107.502 242.683 106.216 246.014 105.871C249.601 105.53 254.894 106.387 258.738 109.903C260.362 111.447 261.641 113.249 262.494 115.396C263.435 117.627 263.861 120.286 263.861 123.12ZM255.32 123.12C255.32 120.033 254.55 117.715 253.013 116.253C251.05 114.539 248.146 114.281 246.779 114.452C244.39 114.622 241.656 115.995 239.693 118.055C237.642 120.115 236.532 122.604 236.532 124.835V137.706H236.959C239.266 137.794 241.656 138.563 244.133 139.937C246.353 141.222 249.513 142.337 252.16 140.711C254.123 139.596 255.32 137.195 255.32 134.531V123.12Z" fill="black"/>
<path d="M308.617 112.221C311.778 116.083 313.314 121.401 313.314 128.01C313.314 134.618 311.778 139.936 308.617 143.798C306.824 145.858 304.686 147.49 302.127 148.605C299.65 149.633 296.746 150.237 293.586 150.237C290.425 150.237 287.522 149.638 285.045 148.605C282.48 147.49 280.348 145.858 278.554 143.798C275.394 139.936 273.857 134.618 273.857 128.01C273.857 121.401 275.394 116.083 278.554 112.221C280.348 110.078 282.48 108.447 285.045 107.414C287.522 106.299 290.425 105.783 293.586 105.783C296.746 105.783 299.65 106.299 302.127 107.414C304.691 108.442 306.824 110.073 308.617 112.221ZM304.773 128.01C304.773 123.461 303.833 119.945 301.957 117.714C300.164 115.484 297.43 114.369 293.586 114.369C289.742 114.369 287.008 115.484 285.214 117.714C283.333 119.945 282.398 123.466 282.398 128.01C282.398 132.553 283.338 136.074 285.214 138.305C287.008 140.535 289.742 141.651 293.586 141.651C297.43 141.651 300.164 140.535 301.957 138.305C303.838 136.074 304.773 132.471 304.773 128.01Z" fill="black"/>
<path d="M359.602 122.774V149.287H351.061V122.774C351.061 119.687 350.377 117.456 348.923 116.166C346.703 114.193 343.203 114.451 342.52 114.451C340.13 114.71 337.483 116.083 335.433 118.226C333.382 120.368 332.272 122.945 332.272 125.263V149.287H323.731V106.815H332.272V109.732C335.176 107.59 338.424 106.216 341.666 105.958C344.056 105.7 350.038 105.617 354.648 109.82C356.272 111.281 357.464 113.083 358.322 115.226C359.18 117.369 359.602 119.945 359.602 122.774Z" fill="black"/>
<path d="M382.836 149.803C379.161 149.204 375.492 148.347 373.611 147.66L376.602 139.596C378.822 140.453 388.643 142.425 393.088 141.656C394.198 141.485 395.138 140.37 395.308 139.167C395.565 137.453 394.198 135.734 391.464 134.448C389.501 133.503 385.996 131.959 383.092 130.756C381.386 129.982 379.932 129.383 378.992 128.955C373.95 126.636 370.964 122.175 371.047 117.198C371.134 114.968 371.9 112.737 373.184 110.935C374.551 109.046 376.432 107.59 378.735 106.733C381.638 105.53 385.739 105.53 391.032 106.474C394.959 107.249 398.546 108.364 400 108.963L397.009 117.028C392.569 115.314 384.542 113.682 381.72 114.71C380.441 115.226 379.67 116.253 379.588 117.456C379.588 118.917 380.61 120.286 382.491 121.148C383.344 121.489 384.799 122.093 386.417 122.862C389.408 124.065 392.995 125.691 395.128 126.636C398.289 128.18 400.596 130.152 402.133 132.641C403.587 134.959 404.183 137.618 403.757 140.277C403.16 145.254 399.316 149.287 394.619 150.144C393.34 150.314 391.973 150.402 390.606 150.402C387.872 150.402 385.056 150.061 382.836 149.803Z" fill="black"/>
<path d="M452.695 149.292H444.154C444.154 148.435 443.815 147.232 443.132 146.891C442.361 146.375 440.485 146.375 437.494 147.919C434.503 149.375 431.517 150.061 428.696 150.061C427.159 150.061 425.705 149.891 424.338 149.462C420.664 148.347 417.59 145.858 415.797 142.342C414.003 138.997 413.49 135.135 414.43 131.443C415.453 127.499 418.017 124.065 421.774 121.917C424.338 120.373 427.581 119.687 431.086 119.945C434.328 120.203 437.576 121.148 440.48 122.862C440.737 122.95 440.994 123.12 441.251 123.291V122.516C441.251 118.138 439.37 116.77 438.774 116.336C434.76 113.248 425.88 114.364 419.471 116.166L417.082 107.93C419.302 107.332 423.66 106.216 428.526 105.958C435.104 105.53 440.228 106.733 443.897 109.474C445.778 110.93 447.227 112.737 448.255 114.88C449.278 117.11 449.792 119.687 449.792 122.516V141.31C451.924 143.711 452.695 146.803 452.695 149.292ZM441.251 138.052C441.081 133.761 438.003 131.361 436.214 130.245C434.164 129.13 431.856 128.531 429.724 128.531C428.357 128.531 427.077 128.789 426.049 129.388C422.293 131.531 421.779 135.568 423.315 138.31C425.109 141.743 429.035 142.513 433.732 140.2C436.636 138.739 439.113 138.14 441.245 138.057L441.251 138.052Z" fill="black"/>
<path d="M462.434 95.4875C462.434 92.7407 464.654 90.598 467.388 90.598C470.122 90.598 472.255 92.7407 472.255 95.4875C472.255 98.2342 470.117 100.465 467.388 100.465C464.66 100.465 462.434 98.2342 462.434 95.4875ZM463.03 106.815H471.572V149.204H463.03V106.815Z" fill="black"/>
</svg>
